<svg id="Layer_1" data-name="Layer 1" xmlns="http://www.w3.org/2000/svg" version="1.1" viewBox="0 0 1715.9 477.4">
  <defs>
    <style>
      .cls-1 {
        fill: #E8E8E8;
        stroke-width: 0px;
      }
    </style>
  </defs>
  <path class="cls-1" d="M1576,266.7l-37,50h169v-50h-132ZM1576,266.7l-37,50h169v-50h-132ZM486,125.7c34,0,61-27,61-60s-27-60-61-60-60,27-60,60,27,60,60,60ZM1422,94.7l37-50h-169v50h132ZM1708,44.7h-97v80h-35V44.7h-97v80h-189v116h418V44.7ZM1389,346.7h-2v-80h-97v196h418v-116h-319ZM1193,337.7c13-115-55-200-160-200s-166,72-166,167,56,167,164,167,139-38,160-110h-101c-10,15-32,24-54,24s-61-14-71-48h228ZM1097,264.7h-130c8-25,34-41,65-41s55,15,65,41ZM448,144.7h-70l70,94v224h97V144.7h-97ZM733,144.7V44.7h-97v100h-70l70,94v126c0,59,41,98,101,98h112v-100h-94c-14,0-22-8-22-20v-104h116v-94h-116ZM250,462.7c77,0,131-50,131-121s-38-106-108-122c-41-10-104-23-143-32-17-4-26-14-25-24,1-12,10-19,29-19h217V44.7h-216C52,44.7,8,104.7,8,164.7s32,103,97,118c45,11,106,23,149,33,22,5,29,15,28,25-1,12-10,22-35,22H17v100h233Z"></path>
</svg>